<mxfile host="app.diagrams.net" modified="2023-05-29T14:57:49.145Z" agent="Mozilla/5.0 (Windows NT 10.0; Win64; x64; rv:109.0) Gecko/20100101 Firefox/113.0" etag="ePG1GG87Nl6c7Vjz0M6J" version="21.3.2" type="github">
  <diagram id="R2lEEEUBdFMjLlhIrx00" name="Page-1">
    <mxGraphModel dx="702" dy="730" grid="1" gridSize="10" guides="1" tooltips="1" connect="1" arrows="1" fold="1" page="1" pageScale="1" pageWidth="850" pageHeight="1100" background="none" math="0" shadow="0" extFonts="Permanent Marker^https://fonts.googleapis.com/css?family=Permanent+Marker">
      <root>
        <mxCell id="0" />
        <mxCell id="1" parent="0" />
        <mxCell id="C-vyLk0tnHw3VtMMgP7b-1" value="" style="edgeStyle=entityRelationEdgeStyle;endArrow=ERzeroToMany;startArrow=ERone;endFill=1;startFill=0;entryX=0;entryY=0.5;entryDx=0;entryDy=0;" parent="1" source="C-vyLk0tnHw3VtMMgP7b-24" target="EmwIvO2XIdEwtpXnSPbd-47" edge="1">
          <mxGeometry width="100" height="100" relative="1" as="geometry">
            <mxPoint x="340" y="720" as="sourcePoint" />
            <mxPoint x="440" y="620" as="targetPoint" />
          </mxGeometry>
        </mxCell>
        <mxCell id="C-vyLk0tnHw3VtMMgP7b-12" value="" style="edgeStyle=entityRelationEdgeStyle;endArrow=ERzeroToMany;startArrow=ERone;endFill=1;startFill=0;entryX=0;entryY=0.5;entryDx=0;entryDy=0;exitX=1;exitY=0.5;exitDx=0;exitDy=0;" parent="1" source="EmwIvO2XIdEwtpXnSPbd-44" target="EmwIvO2XIdEwtpXnSPbd-71" edge="1">
          <mxGeometry width="100" height="100" relative="1" as="geometry">
            <mxPoint x="770" y="420" as="sourcePoint" />
            <mxPoint x="710" y="809.9999999999998" as="targetPoint" />
          </mxGeometry>
        </mxCell>
        <mxCell id="C-vyLk0tnHw3VtMMgP7b-23" value="Customers" style="shape=table;startSize=30;container=1;collapsible=1;childLayout=tableLayout;fixedRows=1;rowLines=0;fontStyle=1;align=center;resizeLast=1;swimlaneLine=1;strokeColor=default;labelBackgroundColor=none;" parent="1" vertex="1">
          <mxGeometry x="30" y="150" width="250" height="250" as="geometry">
            <mxRectangle x="30" y="150" width="100" height="30" as="alternateBounds" />
          </mxGeometry>
        </mxCell>
        <mxCell id="C-vyLk0tnHw3VtMMgP7b-24" value="" style="shape=partialRectangle;collapsible=0;dropTarget=0;pointerEvents=0;fillColor=none;points=[[0,0.5],[1,0.5]];portConstraint=eastwest;top=0;left=0;right=0;bottom=1;" parent="C-vyLk0tnHw3VtMMgP7b-23" vertex="1">
          <mxGeometry y="30" width="250" height="30" as="geometry" />
        </mxCell>
        <mxCell id="C-vyLk0tnHw3VtMMgP7b-25" value="id" style="shape=partialRectangle;overflow=hidden;connectable=0;fillColor=none;top=0;left=0;bottom=0;right=0;fontStyle=1;strokeColor=default;" parent="C-vyLk0tnHw3VtMMgP7b-24" vertex="1">
          <mxGeometry width="119.99999999999994" height="30" as="geometry">
            <mxRectangle width="119.99999999999994" height="30" as="alternateBounds" />
          </mxGeometry>
        </mxCell>
        <mxCell id="C-vyLk0tnHw3VtMMgP7b-26" value="AutoNumber" style="shape=partialRectangle;overflow=hidden;connectable=0;fillColor=none;top=0;left=0;bottom=0;right=0;align=left;spacingLeft=6;fontStyle=1;strokeColor=default;" parent="C-vyLk0tnHw3VtMMgP7b-24" vertex="1">
          <mxGeometry x="119.99999999999994" width="130.00000000000006" height="30" as="geometry">
            <mxRectangle width="130.00000000000006" height="30" as="alternateBounds" />
          </mxGeometry>
        </mxCell>
        <mxCell id="C-vyLk0tnHw3VtMMgP7b-27" value="" style="shape=partialRectangle;collapsible=0;dropTarget=0;pointerEvents=0;fillColor=none;points=[[0,0.5],[1,0.5]];portConstraint=eastwest;top=0;left=0;right=0;bottom=0;" parent="C-vyLk0tnHw3VtMMgP7b-23" vertex="1">
          <mxGeometry y="60" width="250" height="30" as="geometry" />
        </mxCell>
        <mxCell id="C-vyLk0tnHw3VtMMgP7b-28" value="first_name" style="shape=partialRectangle;overflow=hidden;connectable=0;fillColor=none;top=0;left=0;bottom=0;right=0;" parent="C-vyLk0tnHw3VtMMgP7b-27" vertex="1">
          <mxGeometry width="119.99999999999994" height="30" as="geometry">
            <mxRectangle width="119.99999999999994" height="30" as="alternateBounds" />
          </mxGeometry>
        </mxCell>
        <mxCell id="C-vyLk0tnHw3VtMMgP7b-29" value="Short Text" style="shape=partialRectangle;overflow=hidden;connectable=0;fillColor=none;top=0;left=0;bottom=0;right=0;align=left;spacingLeft=6;" parent="C-vyLk0tnHw3VtMMgP7b-27" vertex="1">
          <mxGeometry x="119.99999999999994" width="130.00000000000006" height="30" as="geometry">
            <mxRectangle width="130.00000000000006" height="30" as="alternateBounds" />
          </mxGeometry>
        </mxCell>
        <mxCell id="EmwIvO2XIdEwtpXnSPbd-2" style="shape=partialRectangle;collapsible=0;dropTarget=0;pointerEvents=0;fillColor=none;points=[[0,0.5],[1,0.5]];portConstraint=eastwest;top=0;left=0;right=0;bottom=0;" parent="C-vyLk0tnHw3VtMMgP7b-23" vertex="1">
          <mxGeometry y="90" width="250" height="30" as="geometry" />
        </mxCell>
        <mxCell id="EmwIvO2XIdEwtpXnSPbd-3" value="last_name" style="shape=partialRectangle;overflow=hidden;connectable=0;fillColor=none;top=0;left=0;bottom=0;right=0;" parent="EmwIvO2XIdEwtpXnSPbd-2" vertex="1">
          <mxGeometry width="119.99999999999994" height="30" as="geometry">
            <mxRectangle width="119.99999999999994" height="30" as="alternateBounds" />
          </mxGeometry>
        </mxCell>
        <mxCell id="EmwIvO2XIdEwtpXnSPbd-4" value="Short Text" style="shape=partialRectangle;overflow=hidden;connectable=0;fillColor=none;top=0;left=0;bottom=0;right=0;align=left;spacingLeft=6;strokeColor=inherit;verticalAlign=middle;" parent="EmwIvO2XIdEwtpXnSPbd-2" vertex="1">
          <mxGeometry x="119.99999999999994" width="130.00000000000006" height="30" as="geometry">
            <mxRectangle width="130.00000000000006" height="30" as="alternateBounds" />
          </mxGeometry>
        </mxCell>
        <mxCell id="EmwIvO2XIdEwtpXnSPbd-11" style="shape=partialRectangle;collapsible=0;dropTarget=0;pointerEvents=0;fillColor=none;points=[[0,0.5],[1,0.5]];portConstraint=eastwest;top=0;left=0;right=0;bottom=0;" parent="C-vyLk0tnHw3VtMMgP7b-23" vertex="1">
          <mxGeometry y="120" width="250" height="30" as="geometry" />
        </mxCell>
        <mxCell id="EmwIvO2XIdEwtpXnSPbd-12" value="address" style="shape=partialRectangle;overflow=hidden;connectable=0;fillColor=none;top=0;left=0;bottom=0;right=0;" parent="EmwIvO2XIdEwtpXnSPbd-11" vertex="1">
          <mxGeometry width="119.99999999999994" height="30" as="geometry">
            <mxRectangle width="119.99999999999994" height="30" as="alternateBounds" />
          </mxGeometry>
        </mxCell>
        <mxCell id="EmwIvO2XIdEwtpXnSPbd-13" value="Short Text" style="shape=partialRectangle;overflow=hidden;connectable=0;fillColor=none;top=0;left=0;bottom=0;right=0;align=left;spacingLeft=6;" parent="EmwIvO2XIdEwtpXnSPbd-11" vertex="1">
          <mxGeometry x="119.99999999999994" width="130.00000000000006" height="30" as="geometry">
            <mxRectangle width="130.00000000000006" height="30" as="alternateBounds" />
          </mxGeometry>
        </mxCell>
        <mxCell id="EmwIvO2XIdEwtpXnSPbd-8" style="shape=partialRectangle;collapsible=0;dropTarget=0;pointerEvents=0;fillColor=none;points=[[0,0.5],[1,0.5]];portConstraint=eastwest;top=0;left=0;right=0;bottom=0;" parent="C-vyLk0tnHw3VtMMgP7b-23" vertex="1">
          <mxGeometry y="150" width="250" height="30" as="geometry" />
        </mxCell>
        <mxCell id="EmwIvO2XIdEwtpXnSPbd-9" value="phone_number" style="shape=partialRectangle;overflow=hidden;connectable=0;fillColor=none;top=0;left=0;bottom=0;right=0;" parent="EmwIvO2XIdEwtpXnSPbd-8" vertex="1">
          <mxGeometry width="119.99999999999994" height="30" as="geometry">
            <mxRectangle width="119.99999999999994" height="30" as="alternateBounds" />
          </mxGeometry>
        </mxCell>
        <mxCell id="EmwIvO2XIdEwtpXnSPbd-10" value="Number" style="shape=partialRectangle;overflow=hidden;connectable=0;fillColor=none;top=0;left=0;bottom=0;right=0;align=left;spacingLeft=6;" parent="EmwIvO2XIdEwtpXnSPbd-8" vertex="1">
          <mxGeometry x="119.99999999999994" width="130.00000000000006" height="30" as="geometry">
            <mxRectangle width="130.00000000000006" height="30" as="alternateBounds" />
          </mxGeometry>
        </mxCell>
        <mxCell id="EmwIvO2XIdEwtpXnSPbd-5" style="shape=partialRectangle;collapsible=0;dropTarget=0;pointerEvents=0;fillColor=none;points=[[0,0.5],[1,0.5]];portConstraint=eastwest;top=0;left=0;right=0;bottom=0;" parent="C-vyLk0tnHw3VtMMgP7b-23" vertex="1">
          <mxGeometry y="180" width="250" height="30" as="geometry" />
        </mxCell>
        <mxCell id="EmwIvO2XIdEwtpXnSPbd-6" value="email" style="shape=partialRectangle;overflow=hidden;connectable=0;fillColor=none;top=0;left=0;bottom=0;right=0;" parent="EmwIvO2XIdEwtpXnSPbd-5" vertex="1">
          <mxGeometry width="119.99999999999994" height="30" as="geometry">
            <mxRectangle width="119.99999999999994" height="30" as="alternateBounds" />
          </mxGeometry>
        </mxCell>
        <mxCell id="EmwIvO2XIdEwtpXnSPbd-7" value="Short Text" style="shape=partialRectangle;overflow=hidden;connectable=0;fillColor=none;top=0;left=0;bottom=0;right=0;align=left;spacingLeft=6;" parent="EmwIvO2XIdEwtpXnSPbd-5" vertex="1">
          <mxGeometry x="119.99999999999994" width="130.00000000000006" height="30" as="geometry">
            <mxRectangle width="130.00000000000006" height="30" as="alternateBounds" />
          </mxGeometry>
        </mxCell>
        <mxCell id="EmwIvO2XIdEwtpXnSPbd-14" style="shape=partialRectangle;collapsible=0;dropTarget=0;pointerEvents=0;fillColor=none;points=[[0,0.5],[1,0.5]];portConstraint=eastwest;top=0;left=0;right=0;bottom=0;" parent="C-vyLk0tnHw3VtMMgP7b-23" vertex="1">
          <mxGeometry y="210" width="250" height="30" as="geometry" />
        </mxCell>
        <mxCell id="EmwIvO2XIdEwtpXnSPbd-15" value="date_of_birth" style="shape=partialRectangle;overflow=hidden;connectable=0;fillColor=none;top=0;left=0;bottom=0;right=0;" parent="EmwIvO2XIdEwtpXnSPbd-14" vertex="1">
          <mxGeometry width="119.99999999999994" height="30" as="geometry">
            <mxRectangle width="119.99999999999994" height="30" as="alternateBounds" />
          </mxGeometry>
        </mxCell>
        <mxCell id="EmwIvO2XIdEwtpXnSPbd-16" value="Date/Time" style="shape=partialRectangle;overflow=hidden;connectable=0;fillColor=none;top=0;left=0;bottom=0;right=0;align=left;spacingLeft=6;" parent="EmwIvO2XIdEwtpXnSPbd-14" vertex="1">
          <mxGeometry x="119.99999999999994" width="130.00000000000006" height="30" as="geometry">
            <mxRectangle width="130.00000000000006" height="30" as="alternateBounds" />
          </mxGeometry>
        </mxCell>
        <mxCell id="EmwIvO2XIdEwtpXnSPbd-17" value="Employees" style="shape=table;startSize=30;container=1;collapsible=1;childLayout=tableLayout;fixedRows=1;rowLines=0;fontStyle=1;align=center;resizeLast=1;swimlaneLine=1;strokeColor=default;" parent="1" vertex="1">
          <mxGeometry x="30" y="440" width="250" height="250" as="geometry">
            <mxRectangle x="30" y="150" width="100" height="30" as="alternateBounds" />
          </mxGeometry>
        </mxCell>
        <mxCell id="EmwIvO2XIdEwtpXnSPbd-18" value="" style="shape=partialRectangle;collapsible=0;dropTarget=0;pointerEvents=0;fillColor=none;points=[[0,0.5],[1,0.5]];portConstraint=eastwest;top=0;left=0;right=0;bottom=1;" parent="EmwIvO2XIdEwtpXnSPbd-17" vertex="1">
          <mxGeometry y="30" width="250" height="30" as="geometry" />
        </mxCell>
        <mxCell id="EmwIvO2XIdEwtpXnSPbd-19" value="id" style="shape=partialRectangle;overflow=hidden;connectable=0;fillColor=none;top=0;left=0;bottom=0;right=0;fontStyle=1;strokeColor=default;" parent="EmwIvO2XIdEwtpXnSPbd-18" vertex="1">
          <mxGeometry width="119.99999999999994" height="30" as="geometry">
            <mxRectangle width="119.99999999999994" height="30" as="alternateBounds" />
          </mxGeometry>
        </mxCell>
        <mxCell id="EmwIvO2XIdEwtpXnSPbd-20" value="AutoNumber" style="shape=partialRectangle;overflow=hidden;connectable=0;fillColor=none;top=0;left=0;bottom=0;right=0;align=left;spacingLeft=6;fontStyle=1;strokeColor=default;" parent="EmwIvO2XIdEwtpXnSPbd-18" vertex="1">
          <mxGeometry x="119.99999999999994" width="130.00000000000006" height="30" as="geometry">
            <mxRectangle width="130.00000000000006" height="30" as="alternateBounds" />
          </mxGeometry>
        </mxCell>
        <mxCell id="EmwIvO2XIdEwtpXnSPbd-21" value="" style="shape=partialRectangle;collapsible=0;dropTarget=0;pointerEvents=0;fillColor=none;points=[[0,0.5],[1,0.5]];portConstraint=eastwest;top=0;left=0;right=0;bottom=0;" parent="EmwIvO2XIdEwtpXnSPbd-17" vertex="1">
          <mxGeometry y="60" width="250" height="30" as="geometry" />
        </mxCell>
        <mxCell id="EmwIvO2XIdEwtpXnSPbd-22" value="first_name" style="shape=partialRectangle;overflow=hidden;connectable=0;fillColor=none;top=0;left=0;bottom=0;right=0;" parent="EmwIvO2XIdEwtpXnSPbd-21" vertex="1">
          <mxGeometry width="119.99999999999994" height="30" as="geometry">
            <mxRectangle width="119.99999999999994" height="30" as="alternateBounds" />
          </mxGeometry>
        </mxCell>
        <mxCell id="EmwIvO2XIdEwtpXnSPbd-23" value="Short Text" style="shape=partialRectangle;overflow=hidden;connectable=0;fillColor=none;top=0;left=0;bottom=0;right=0;align=left;spacingLeft=6;" parent="EmwIvO2XIdEwtpXnSPbd-21" vertex="1">
          <mxGeometry x="119.99999999999994" width="130.00000000000006" height="30" as="geometry">
            <mxRectangle width="130.00000000000006" height="30" as="alternateBounds" />
          </mxGeometry>
        </mxCell>
        <mxCell id="EmwIvO2XIdEwtpXnSPbd-24" style="shape=partialRectangle;collapsible=0;dropTarget=0;pointerEvents=0;fillColor=none;points=[[0,0.5],[1,0.5]];portConstraint=eastwest;top=0;left=0;right=0;bottom=0;" parent="EmwIvO2XIdEwtpXnSPbd-17" vertex="1">
          <mxGeometry y="90" width="250" height="30" as="geometry" />
        </mxCell>
        <mxCell id="EmwIvO2XIdEwtpXnSPbd-25" value="last_name" style="shape=partialRectangle;overflow=hidden;connectable=0;fillColor=none;top=0;left=0;bottom=0;right=0;" parent="EmwIvO2XIdEwtpXnSPbd-24" vertex="1">
          <mxGeometry width="119.99999999999994" height="30" as="geometry">
            <mxRectangle width="119.99999999999994" height="30" as="alternateBounds" />
          </mxGeometry>
        </mxCell>
        <mxCell id="EmwIvO2XIdEwtpXnSPbd-26" value="Short Text" style="shape=partialRectangle;overflow=hidden;connectable=0;fillColor=none;top=0;left=0;bottom=0;right=0;align=left;spacingLeft=6;strokeColor=inherit;verticalAlign=middle;" parent="EmwIvO2XIdEwtpXnSPbd-24" vertex="1">
          <mxGeometry x="119.99999999999994" width="130.00000000000006" height="30" as="geometry">
            <mxRectangle width="130.00000000000006" height="30" as="alternateBounds" />
          </mxGeometry>
        </mxCell>
        <mxCell id="EmwIvO2XIdEwtpXnSPbd-27" style="shape=partialRectangle;collapsible=0;dropTarget=0;pointerEvents=0;fillColor=none;points=[[0,0.5],[1,0.5]];portConstraint=eastwest;top=0;left=0;right=0;bottom=0;" parent="EmwIvO2XIdEwtpXnSPbd-17" vertex="1">
          <mxGeometry y="120" width="250" height="30" as="geometry" />
        </mxCell>
        <mxCell id="EmwIvO2XIdEwtpXnSPbd-28" value="position" style="shape=partialRectangle;overflow=hidden;connectable=0;fillColor=none;top=0;left=0;bottom=0;right=0;" parent="EmwIvO2XIdEwtpXnSPbd-27" vertex="1">
          <mxGeometry width="119.99999999999994" height="30" as="geometry">
            <mxRectangle width="119.99999999999994" height="30" as="alternateBounds" />
          </mxGeometry>
        </mxCell>
        <mxCell id="EmwIvO2XIdEwtpXnSPbd-29" value="Short Text" style="shape=partialRectangle;overflow=hidden;connectable=0;fillColor=none;top=0;left=0;bottom=0;right=0;align=left;spacingLeft=6;" parent="EmwIvO2XIdEwtpXnSPbd-27" vertex="1">
          <mxGeometry x="119.99999999999994" width="130.00000000000006" height="30" as="geometry">
            <mxRectangle width="130.00000000000006" height="30" as="alternateBounds" />
          </mxGeometry>
        </mxCell>
        <mxCell id="EmwIvO2XIdEwtpXnSPbd-33" style="shape=partialRectangle;collapsible=0;dropTarget=0;pointerEvents=0;fillColor=none;points=[[0,0.5],[1,0.5]];portConstraint=eastwest;top=0;left=0;right=0;bottom=0;" parent="EmwIvO2XIdEwtpXnSPbd-17" vertex="1">
          <mxGeometry y="150" width="250" height="30" as="geometry" />
        </mxCell>
        <mxCell id="EmwIvO2XIdEwtpXnSPbd-34" value="email" style="shape=partialRectangle;overflow=hidden;connectable=0;fillColor=none;top=0;left=0;bottom=0;right=0;" parent="EmwIvO2XIdEwtpXnSPbd-33" vertex="1">
          <mxGeometry width="119.99999999999994" height="30" as="geometry">
            <mxRectangle width="119.99999999999994" height="30" as="alternateBounds" />
          </mxGeometry>
        </mxCell>
        <mxCell id="EmwIvO2XIdEwtpXnSPbd-35" value="Short Text" style="shape=partialRectangle;overflow=hidden;connectable=0;fillColor=none;top=0;left=0;bottom=0;right=0;align=left;spacingLeft=6;" parent="EmwIvO2XIdEwtpXnSPbd-33" vertex="1">
          <mxGeometry x="119.99999999999994" width="130.00000000000006" height="30" as="geometry">
            <mxRectangle width="130.00000000000006" height="30" as="alternateBounds" />
          </mxGeometry>
        </mxCell>
        <mxCell id="EmwIvO2XIdEwtpXnSPbd-39" style="shape=partialRectangle;collapsible=0;dropTarget=0;pointerEvents=0;fillColor=none;points=[[0,0.5],[1,0.5]];portConstraint=eastwest;top=0;left=0;right=0;bottom=0;" parent="EmwIvO2XIdEwtpXnSPbd-17" vertex="1">
          <mxGeometry y="180" width="250" height="30" as="geometry" />
        </mxCell>
        <mxCell id="EmwIvO2XIdEwtpXnSPbd-40" value="address" style="shape=partialRectangle;overflow=hidden;connectable=0;fillColor=none;top=0;left=0;bottom=0;right=0;" parent="EmwIvO2XIdEwtpXnSPbd-39" vertex="1">
          <mxGeometry width="119.99999999999994" height="30" as="geometry">
            <mxRectangle width="119.99999999999994" height="30" as="alternateBounds" />
          </mxGeometry>
        </mxCell>
        <mxCell id="EmwIvO2XIdEwtpXnSPbd-41" style="shape=partialRectangle;overflow=hidden;connectable=0;fillColor=none;top=0;left=0;bottom=0;right=0;align=left;spacingLeft=6;" parent="EmwIvO2XIdEwtpXnSPbd-39" vertex="1">
          <mxGeometry x="119.99999999999994" width="130.00000000000006" height="30" as="geometry">
            <mxRectangle width="130.00000000000006" height="30" as="alternateBounds" />
          </mxGeometry>
        </mxCell>
        <mxCell id="EmwIvO2XIdEwtpXnSPbd-30" style="shape=partialRectangle;collapsible=0;dropTarget=0;pointerEvents=0;fillColor=none;points=[[0,0.5],[1,0.5]];portConstraint=eastwest;top=0;left=0;right=0;bottom=0;" parent="EmwIvO2XIdEwtpXnSPbd-17" vertex="1">
          <mxGeometry y="210" width="250" height="30" as="geometry" />
        </mxCell>
        <mxCell id="EmwIvO2XIdEwtpXnSPbd-31" value="phone_number" style="shape=partialRectangle;overflow=hidden;connectable=0;fillColor=none;top=0;left=0;bottom=0;right=0;" parent="EmwIvO2XIdEwtpXnSPbd-30" vertex="1">
          <mxGeometry width="119.99999999999994" height="30" as="geometry">
            <mxRectangle width="119.99999999999994" height="30" as="alternateBounds" />
          </mxGeometry>
        </mxCell>
        <mxCell id="EmwIvO2XIdEwtpXnSPbd-32" value="Number" style="shape=partialRectangle;overflow=hidden;connectable=0;fillColor=none;top=0;left=0;bottom=0;right=0;align=left;spacingLeft=6;" parent="EmwIvO2XIdEwtpXnSPbd-30" vertex="1">
          <mxGeometry x="119.99999999999994" width="130.00000000000006" height="30" as="geometry">
            <mxRectangle width="130.00000000000006" height="30" as="alternateBounds" />
          </mxGeometry>
        </mxCell>
        <mxCell id="EmwIvO2XIdEwtpXnSPbd-42" value="Short Text" style="shape=partialRectangle;overflow=hidden;connectable=0;fillColor=none;top=0;left=0;bottom=0;right=0;align=left;spacingLeft=6;" parent="1" vertex="1">
          <mxGeometry x="149.99999999999994" y="620" width="130.00000000000006" height="30" as="geometry">
            <mxRectangle width="130.00000000000006" height="30" as="alternateBounds" />
          </mxGeometry>
        </mxCell>
        <mxCell id="EmwIvO2XIdEwtpXnSPbd-43" value="Orders" style="shape=table;startSize=30;container=1;collapsible=1;childLayout=tableLayout;fixedRows=1;rowLines=0;fontStyle=1;align=center;resizeLast=1;swimlaneLine=1;strokeColor=default;" parent="1" vertex="1">
          <mxGeometry x="360" y="300" width="250" height="190.00000000000023" as="geometry">
            <mxRectangle x="30" y="150" width="100" height="30" as="alternateBounds" />
          </mxGeometry>
        </mxCell>
        <mxCell id="EmwIvO2XIdEwtpXnSPbd-44" value="" style="shape=partialRectangle;collapsible=0;dropTarget=0;pointerEvents=0;fillColor=none;points=[[0,0.5],[1,0.5]];portConstraint=eastwest;top=0;left=0;right=0;bottom=1;" parent="EmwIvO2XIdEwtpXnSPbd-43" vertex="1">
          <mxGeometry y="30" width="250" height="30" as="geometry" />
        </mxCell>
        <mxCell id="EmwIvO2XIdEwtpXnSPbd-45" value="id" style="shape=partialRectangle;overflow=hidden;connectable=0;fillColor=none;top=0;left=0;bottom=0;right=0;fontStyle=1;strokeColor=default;" parent="EmwIvO2XIdEwtpXnSPbd-44" vertex="1">
          <mxGeometry width="119.99999999999994" height="30" as="geometry">
            <mxRectangle width="119.99999999999994" height="30" as="alternateBounds" />
          </mxGeometry>
        </mxCell>
        <mxCell id="EmwIvO2XIdEwtpXnSPbd-46" value="AutoNumber" style="shape=partialRectangle;overflow=hidden;connectable=0;fillColor=none;top=0;left=0;bottom=0;right=0;align=left;spacingLeft=6;fontStyle=1;strokeColor=default;" parent="EmwIvO2XIdEwtpXnSPbd-44" vertex="1">
          <mxGeometry x="119.99999999999994" width="130.00000000000006" height="30" as="geometry">
            <mxRectangle width="130.00000000000006" height="30" as="alternateBounds" />
          </mxGeometry>
        </mxCell>
        <mxCell id="EmwIvO2XIdEwtpXnSPbd-47" value="" style="shape=partialRectangle;collapsible=0;dropTarget=0;pointerEvents=0;fillColor=none;points=[[0,0.5],[1,0.5]];portConstraint=eastwest;top=0;left=0;right=0;bottom=0;" parent="EmwIvO2XIdEwtpXnSPbd-43" vertex="1">
          <mxGeometry y="60" width="250" height="30" as="geometry" />
        </mxCell>
        <mxCell id="EmwIvO2XIdEwtpXnSPbd-48" value="customer_id" style="shape=partialRectangle;overflow=hidden;connectable=0;fillColor=none;top=0;left=0;bottom=0;right=0;" parent="EmwIvO2XIdEwtpXnSPbd-47" vertex="1">
          <mxGeometry width="119.99999999999994" height="30" as="geometry">
            <mxRectangle width="119.99999999999994" height="30" as="alternateBounds" />
          </mxGeometry>
        </mxCell>
        <mxCell id="EmwIvO2XIdEwtpXnSPbd-49" value="Number" style="shape=partialRectangle;overflow=hidden;connectable=0;fillColor=none;top=0;left=0;bottom=0;right=0;align=left;spacingLeft=6;" parent="EmwIvO2XIdEwtpXnSPbd-47" vertex="1">
          <mxGeometry x="119.99999999999994" width="130.00000000000006" height="30" as="geometry">
            <mxRectangle width="130.00000000000006" height="30" as="alternateBounds" />
          </mxGeometry>
        </mxCell>
        <mxCell id="EmwIvO2XIdEwtpXnSPbd-65" style="shape=partialRectangle;collapsible=0;dropTarget=0;pointerEvents=0;fillColor=none;points=[[0,0.5],[1,0.5]];portConstraint=eastwest;top=0;left=0;right=0;bottom=0;" parent="EmwIvO2XIdEwtpXnSPbd-43" vertex="1">
          <mxGeometry y="90" width="250" height="30" as="geometry" />
        </mxCell>
        <mxCell id="EmwIvO2XIdEwtpXnSPbd-66" value="employee_id" style="shape=partialRectangle;overflow=hidden;connectable=0;fillColor=none;top=0;left=0;bottom=0;right=0;" parent="EmwIvO2XIdEwtpXnSPbd-65" vertex="1">
          <mxGeometry width="119.99999999999994" height="30" as="geometry">
            <mxRectangle width="119.99999999999994" height="30" as="alternateBounds" />
          </mxGeometry>
        </mxCell>
        <mxCell id="EmwIvO2XIdEwtpXnSPbd-67" value="Number" style="shape=partialRectangle;overflow=hidden;connectable=0;fillColor=none;top=0;left=0;bottom=0;right=0;align=left;spacingLeft=6;" parent="EmwIvO2XIdEwtpXnSPbd-65" vertex="1">
          <mxGeometry x="119.99999999999994" width="130.00000000000006" height="30" as="geometry">
            <mxRectangle width="130.00000000000006" height="30" as="alternateBounds" />
          </mxGeometry>
        </mxCell>
        <mxCell id="EmwIvO2XIdEwtpXnSPbd-50" style="shape=partialRectangle;collapsible=0;dropTarget=0;pointerEvents=0;fillColor=none;points=[[0,0.5],[1,0.5]];portConstraint=eastwest;top=0;left=0;right=0;bottom=0;" parent="EmwIvO2XIdEwtpXnSPbd-43" vertex="1">
          <mxGeometry y="120" width="250" height="30" as="geometry" />
        </mxCell>
        <mxCell id="EmwIvO2XIdEwtpXnSPbd-51" value="order_date" style="shape=partialRectangle;overflow=hidden;connectable=0;fillColor=none;top=0;left=0;bottom=0;right=0;" parent="EmwIvO2XIdEwtpXnSPbd-50" vertex="1">
          <mxGeometry width="119.99999999999994" height="30" as="geometry">
            <mxRectangle width="119.99999999999994" height="30" as="alternateBounds" />
          </mxGeometry>
        </mxCell>
        <mxCell id="EmwIvO2XIdEwtpXnSPbd-52" value="Date/time" style="shape=partialRectangle;overflow=hidden;connectable=0;fillColor=none;top=0;left=0;bottom=0;right=0;align=left;spacingLeft=6;strokeColor=inherit;verticalAlign=middle;" parent="EmwIvO2XIdEwtpXnSPbd-50" vertex="1">
          <mxGeometry x="119.99999999999994" width="130.00000000000006" height="30" as="geometry">
            <mxRectangle width="130.00000000000006" height="30" as="alternateBounds" />
          </mxGeometry>
        </mxCell>
        <mxCell id="EmwIvO2XIdEwtpXnSPbd-53" style="shape=partialRectangle;collapsible=0;dropTarget=0;pointerEvents=0;fillColor=none;points=[[0,0.5],[1,0.5]];portConstraint=eastwest;top=0;left=0;right=0;bottom=0;" parent="EmwIvO2XIdEwtpXnSPbd-43" vertex="1">
          <mxGeometry y="150" width="250" height="30" as="geometry" />
        </mxCell>
        <mxCell id="EmwIvO2XIdEwtpXnSPbd-54" value="discount" style="shape=partialRectangle;overflow=hidden;connectable=0;fillColor=none;top=0;left=0;bottom=0;right=0;" parent="EmwIvO2XIdEwtpXnSPbd-53" vertex="1">
          <mxGeometry width="119.99999999999994" height="30" as="geometry">
            <mxRectangle width="119.99999999999994" height="30" as="alternateBounds" />
          </mxGeometry>
        </mxCell>
        <mxCell id="EmwIvO2XIdEwtpXnSPbd-55" value="Number" style="shape=partialRectangle;overflow=hidden;connectable=0;fillColor=none;top=0;left=0;bottom=0;right=0;align=left;spacingLeft=6;" parent="EmwIvO2XIdEwtpXnSPbd-53" vertex="1">
          <mxGeometry x="119.99999999999994" width="130.00000000000006" height="30" as="geometry">
            <mxRectangle width="130.00000000000006" height="30" as="alternateBounds" />
          </mxGeometry>
        </mxCell>
        <mxCell id="EmwIvO2XIdEwtpXnSPbd-69" value="" style="edgeStyle=entityRelationEdgeStyle;endArrow=ERzeroToMany;startArrow=ERone;endFill=1;startFill=0;entryX=0;entryY=0.5;entryDx=0;entryDy=0;exitX=1;exitY=0.5;exitDx=0;exitDy=0;" parent="1" source="EmwIvO2XIdEwtpXnSPbd-18" target="EmwIvO2XIdEwtpXnSPbd-65" edge="1">
          <mxGeometry width="100" height="100" relative="1" as="geometry">
            <mxPoint x="330" y="580" as="sourcePoint" />
            <mxPoint x="500" y="760" as="targetPoint" />
          </mxGeometry>
        </mxCell>
        <mxCell id="EmwIvO2XIdEwtpXnSPbd-70" value="Order Details" style="shape=table;startSize=30;container=1;collapsible=1;childLayout=tableLayout;fixedRows=1;rowLines=0;fontStyle=1;align=center;resizeLast=1;swimlaneLine=1;strokeColor=default;" parent="1" vertex="1">
          <mxGeometry x="670" y="300" width="250" height="100" as="geometry">
            <mxRectangle x="30" y="150" width="100" height="30" as="alternateBounds" />
          </mxGeometry>
        </mxCell>
        <mxCell id="EmwIvO2XIdEwtpXnSPbd-71" value="" style="shape=partialRectangle;collapsible=0;dropTarget=0;pointerEvents=0;fillColor=none;points=[[0,0.5],[1,0.5]];portConstraint=eastwest;top=0;left=0;right=0;bottom=1;" parent="EmwIvO2XIdEwtpXnSPbd-70" vertex="1">
          <mxGeometry y="30" width="250" height="30" as="geometry" />
        </mxCell>
        <mxCell id="EmwIvO2XIdEwtpXnSPbd-72" value="order_id" style="shape=partialRectangle;overflow=hidden;connectable=0;fillColor=none;top=0;left=0;bottom=0;right=0;fontStyle=1;strokeColor=default;" parent="EmwIvO2XIdEwtpXnSPbd-71" vertex="1">
          <mxGeometry width="119.99999999999994" height="30" as="geometry">
            <mxRectangle width="119.99999999999994" height="30" as="alternateBounds" />
          </mxGeometry>
        </mxCell>
        <mxCell id="EmwIvO2XIdEwtpXnSPbd-73" value="Number" style="shape=partialRectangle;overflow=hidden;connectable=0;fillColor=none;top=0;left=0;bottom=0;right=0;align=left;spacingLeft=6;fontStyle=1;strokeColor=default;" parent="EmwIvO2XIdEwtpXnSPbd-71" vertex="1">
          <mxGeometry x="119.99999999999994" width="130.00000000000006" height="30" as="geometry">
            <mxRectangle width="130.00000000000006" height="30" as="alternateBounds" />
          </mxGeometry>
        </mxCell>
        <mxCell id="EmwIvO2XIdEwtpXnSPbd-74" value="" style="shape=partialRectangle;collapsible=0;dropTarget=0;pointerEvents=0;fillColor=none;points=[[0,0.5],[1,0.5]];portConstraint=eastwest;top=0;left=0;right=0;bottom=0;" parent="EmwIvO2XIdEwtpXnSPbd-70" vertex="1">
          <mxGeometry y="60" width="250" height="30" as="geometry" />
        </mxCell>
        <mxCell id="EmwIvO2XIdEwtpXnSPbd-75" value="product_id" style="shape=partialRectangle;overflow=hidden;connectable=0;fillColor=none;top=0;left=0;bottom=0;right=0;" parent="EmwIvO2XIdEwtpXnSPbd-74" vertex="1">
          <mxGeometry width="119.99999999999994" height="30" as="geometry">
            <mxRectangle width="119.99999999999994" height="30" as="alternateBounds" />
          </mxGeometry>
        </mxCell>
        <mxCell id="EmwIvO2XIdEwtpXnSPbd-76" value="Number" style="shape=partialRectangle;overflow=hidden;connectable=0;fillColor=none;top=0;left=0;bottom=0;right=0;align=left;spacingLeft=6;" parent="EmwIvO2XIdEwtpXnSPbd-74" vertex="1">
          <mxGeometry x="119.99999999999994" width="130.00000000000006" height="30" as="geometry">
            <mxRectangle width="130.00000000000006" height="30" as="alternateBounds" />
          </mxGeometry>
        </mxCell>
        <mxCell id="EmwIvO2XIdEwtpXnSPbd-86" value="Products" style="shape=table;startSize=30;container=1;collapsible=1;childLayout=tableLayout;fixedRows=1;rowLines=0;fontStyle=1;align=center;resizeLast=1;swimlaneLine=1;strokeColor=default;" parent="1" vertex="1">
          <mxGeometry x="990" y="300" width="250" height="280" as="geometry">
            <mxRectangle x="30" y="150" width="100" height="30" as="alternateBounds" />
          </mxGeometry>
        </mxCell>
        <mxCell id="EmwIvO2XIdEwtpXnSPbd-87" value="" style="shape=partialRectangle;collapsible=0;dropTarget=0;pointerEvents=0;fillColor=none;points=[[0,0.5],[1,0.5]];portConstraint=eastwest;top=0;left=0;right=0;bottom=1;" parent="EmwIvO2XIdEwtpXnSPbd-86" vertex="1">
          <mxGeometry y="30" width="250" height="30" as="geometry" />
        </mxCell>
        <mxCell id="EmwIvO2XIdEwtpXnSPbd-88" value="id" style="shape=partialRectangle;overflow=hidden;connectable=0;fillColor=none;top=0;left=0;bottom=0;right=0;fontStyle=1;strokeColor=default;" parent="EmwIvO2XIdEwtpXnSPbd-87" vertex="1">
          <mxGeometry width="119.99999999999994" height="30" as="geometry">
            <mxRectangle width="119.99999999999994" height="30" as="alternateBounds" />
          </mxGeometry>
        </mxCell>
        <mxCell id="EmwIvO2XIdEwtpXnSPbd-89" value="AutoNumber" style="shape=partialRectangle;overflow=hidden;connectable=0;fillColor=none;top=0;left=0;bottom=0;right=0;align=left;spacingLeft=6;fontStyle=1;strokeColor=default;" parent="EmwIvO2XIdEwtpXnSPbd-87" vertex="1">
          <mxGeometry x="119.99999999999994" width="130.00000000000006" height="30" as="geometry">
            <mxRectangle width="130.00000000000006" height="30" as="alternateBounds" />
          </mxGeometry>
        </mxCell>
        <mxCell id="EmwIvO2XIdEwtpXnSPbd-90" value="" style="shape=partialRectangle;collapsible=0;dropTarget=0;pointerEvents=0;fillColor=none;points=[[0,0.5],[1,0.5]];portConstraint=eastwest;top=0;left=0;right=0;bottom=0;" parent="EmwIvO2XIdEwtpXnSPbd-86" vertex="1">
          <mxGeometry y="60" width="250" height="30" as="geometry" />
        </mxCell>
        <mxCell id="EmwIvO2XIdEwtpXnSPbd-91" value="model" style="shape=partialRectangle;overflow=hidden;connectable=0;fillColor=none;top=0;left=0;bottom=0;right=0;" parent="EmwIvO2XIdEwtpXnSPbd-90" vertex="1">
          <mxGeometry width="119.99999999999994" height="30" as="geometry">
            <mxRectangle width="119.99999999999994" height="30" as="alternateBounds" />
          </mxGeometry>
        </mxCell>
        <mxCell id="EmwIvO2XIdEwtpXnSPbd-92" value="Short Text" style="shape=partialRectangle;overflow=hidden;connectable=0;fillColor=none;top=0;left=0;bottom=0;right=0;align=left;spacingLeft=6;" parent="EmwIvO2XIdEwtpXnSPbd-90" vertex="1">
          <mxGeometry x="119.99999999999994" width="130.00000000000006" height="30" as="geometry">
            <mxRectangle width="130.00000000000006" height="30" as="alternateBounds" />
          </mxGeometry>
        </mxCell>
        <mxCell id="EmwIvO2XIdEwtpXnSPbd-93" style="shape=partialRectangle;collapsible=0;dropTarget=0;pointerEvents=0;fillColor=none;points=[[0,0.5],[1,0.5]];portConstraint=eastwest;top=0;left=0;right=0;bottom=0;" parent="EmwIvO2XIdEwtpXnSPbd-86" vertex="1">
          <mxGeometry y="90" width="250" height="30" as="geometry" />
        </mxCell>
        <mxCell id="EmwIvO2XIdEwtpXnSPbd-94" value="type" style="shape=partialRectangle;overflow=hidden;connectable=0;fillColor=none;top=0;left=0;bottom=0;right=0;" parent="EmwIvO2XIdEwtpXnSPbd-93" vertex="1">
          <mxGeometry width="119.99999999999994" height="30" as="geometry">
            <mxRectangle width="119.99999999999994" height="30" as="alternateBounds" />
          </mxGeometry>
        </mxCell>
        <mxCell id="EmwIvO2XIdEwtpXnSPbd-95" value="Short Text" style="shape=partialRectangle;overflow=hidden;connectable=0;fillColor=none;top=0;left=0;bottom=0;right=0;align=left;spacingLeft=6;" parent="EmwIvO2XIdEwtpXnSPbd-93" vertex="1">
          <mxGeometry x="119.99999999999994" width="130.00000000000006" height="30" as="geometry">
            <mxRectangle width="130.00000000000006" height="30" as="alternateBounds" />
          </mxGeometry>
        </mxCell>
        <mxCell id="EmwIvO2XIdEwtpXnSPbd-96" style="shape=partialRectangle;collapsible=0;dropTarget=0;pointerEvents=0;fillColor=none;points=[[0,0.5],[1,0.5]];portConstraint=eastwest;top=0;left=0;right=0;bottom=0;" parent="EmwIvO2XIdEwtpXnSPbd-86" vertex="1">
          <mxGeometry y="120" width="250" height="30" as="geometry" />
        </mxCell>
        <mxCell id="EmwIvO2XIdEwtpXnSPbd-97" value="description" style="shape=partialRectangle;overflow=hidden;connectable=0;fillColor=none;top=0;left=0;bottom=0;right=0;" parent="EmwIvO2XIdEwtpXnSPbd-96" vertex="1">
          <mxGeometry width="119.99999999999994" height="30" as="geometry">
            <mxRectangle width="119.99999999999994" height="30" as="alternateBounds" />
          </mxGeometry>
        </mxCell>
        <mxCell id="EmwIvO2XIdEwtpXnSPbd-98" value="Short Text" style="shape=partialRectangle;overflow=hidden;connectable=0;fillColor=none;top=0;left=0;bottom=0;right=0;align=left;spacingLeft=6;strokeColor=inherit;verticalAlign=middle;" parent="EmwIvO2XIdEwtpXnSPbd-96" vertex="1">
          <mxGeometry x="119.99999999999994" width="130.00000000000006" height="30" as="geometry">
            <mxRectangle width="130.00000000000006" height="30" as="alternateBounds" />
          </mxGeometry>
        </mxCell>
        <mxCell id="EmwIvO2XIdEwtpXnSPbd-99" style="shape=partialRectangle;collapsible=0;dropTarget=0;pointerEvents=0;fillColor=none;points=[[0,0.5],[1,0.5]];portConstraint=eastwest;top=0;left=0;right=0;bottom=0;" parent="EmwIvO2XIdEwtpXnSPbd-86" vertex="1">
          <mxGeometry y="150" width="250" height="30" as="geometry" />
        </mxCell>
        <mxCell id="EmwIvO2XIdEwtpXnSPbd-100" value="price" style="shape=partialRectangle;overflow=hidden;connectable=0;fillColor=none;top=0;left=0;bottom=0;right=0;" parent="EmwIvO2XIdEwtpXnSPbd-99" vertex="1">
          <mxGeometry width="119.99999999999994" height="30" as="geometry">
            <mxRectangle width="119.99999999999994" height="30" as="alternateBounds" />
          </mxGeometry>
        </mxCell>
        <mxCell id="EmwIvO2XIdEwtpXnSPbd-101" value="Currency" style="shape=partialRectangle;overflow=hidden;connectable=0;fillColor=none;top=0;left=0;bottom=0;right=0;align=left;spacingLeft=6;" parent="EmwIvO2XIdEwtpXnSPbd-99" vertex="1">
          <mxGeometry x="119.99999999999994" width="130.00000000000006" height="30" as="geometry">
            <mxRectangle width="130.00000000000006" height="30" as="alternateBounds" />
          </mxGeometry>
        </mxCell>
        <mxCell id="EmwIvO2XIdEwtpXnSPbd-108" style="shape=partialRectangle;collapsible=0;dropTarget=0;pointerEvents=0;fillColor=none;points=[[0,0.5],[1,0.5]];portConstraint=eastwest;top=0;left=0;right=0;bottom=0;" parent="EmwIvO2XIdEwtpXnSPbd-86" vertex="1">
          <mxGeometry y="180" width="250" height="30" as="geometry" />
        </mxCell>
        <mxCell id="EmwIvO2XIdEwtpXnSPbd-109" value="manufacturer" style="shape=partialRectangle;overflow=hidden;connectable=0;fillColor=none;top=0;left=0;bottom=0;right=0;" parent="EmwIvO2XIdEwtpXnSPbd-108" vertex="1">
          <mxGeometry width="119.99999999999994" height="30" as="geometry">
            <mxRectangle width="119.99999999999994" height="30" as="alternateBounds" />
          </mxGeometry>
        </mxCell>
        <mxCell id="EmwIvO2XIdEwtpXnSPbd-110" value="Short Text" style="shape=partialRectangle;overflow=hidden;connectable=0;fillColor=none;top=0;left=0;bottom=0;right=0;align=left;spacingLeft=6;" parent="EmwIvO2XIdEwtpXnSPbd-108" vertex="1">
          <mxGeometry x="119.99999999999994" width="130.00000000000006" height="30" as="geometry">
            <mxRectangle width="130.00000000000006" height="30" as="alternateBounds" />
          </mxGeometry>
        </mxCell>
        <mxCell id="EmwIvO2XIdEwtpXnSPbd-105" style="shape=partialRectangle;collapsible=0;dropTarget=0;pointerEvents=0;fillColor=none;points=[[0,0.5],[1,0.5]];portConstraint=eastwest;top=0;left=0;right=0;bottom=0;" parent="EmwIvO2XIdEwtpXnSPbd-86" vertex="1">
          <mxGeometry y="210" width="250" height="30" as="geometry" />
        </mxCell>
        <mxCell id="EmwIvO2XIdEwtpXnSPbd-106" value="stock" style="shape=partialRectangle;overflow=hidden;connectable=0;fillColor=none;top=0;left=0;bottom=0;right=0;" parent="EmwIvO2XIdEwtpXnSPbd-105" vertex="1">
          <mxGeometry width="119.99999999999994" height="30" as="geometry">
            <mxRectangle width="119.99999999999994" height="30" as="alternateBounds" />
          </mxGeometry>
        </mxCell>
        <mxCell id="EmwIvO2XIdEwtpXnSPbd-107" value="Number" style="shape=partialRectangle;overflow=hidden;connectable=0;fillColor=none;top=0;left=0;bottom=0;right=0;align=left;spacingLeft=6;" parent="EmwIvO2XIdEwtpXnSPbd-105" vertex="1">
          <mxGeometry x="119.99999999999994" width="130.00000000000006" height="30" as="geometry">
            <mxRectangle width="130.00000000000006" height="30" as="alternateBounds" />
          </mxGeometry>
        </mxCell>
        <mxCell id="EmwIvO2XIdEwtpXnSPbd-102" style="shape=partialRectangle;collapsible=0;dropTarget=0;pointerEvents=0;fillColor=none;points=[[0,0.5],[1,0.5]];portConstraint=eastwest;top=0;left=0;right=0;bottom=0;" parent="EmwIvO2XIdEwtpXnSPbd-86" vertex="1">
          <mxGeometry y="240" width="250" height="30" as="geometry" />
        </mxCell>
        <mxCell id="EmwIvO2XIdEwtpXnSPbd-103" value="supplier_id" style="shape=partialRectangle;overflow=hidden;connectable=0;fillColor=none;top=0;left=0;bottom=0;right=0;" parent="EmwIvO2XIdEwtpXnSPbd-102" vertex="1">
          <mxGeometry width="119.99999999999994" height="30" as="geometry">
            <mxRectangle width="119.99999999999994" height="30" as="alternateBounds" />
          </mxGeometry>
        </mxCell>
        <mxCell id="EmwIvO2XIdEwtpXnSPbd-104" value="Number" style="shape=partialRectangle;overflow=hidden;connectable=0;fillColor=none;top=0;left=0;bottom=0;right=0;align=left;spacingLeft=6;" parent="EmwIvO2XIdEwtpXnSPbd-102" vertex="1">
          <mxGeometry x="119.99999999999994" width="130.00000000000006" height="30" as="geometry">
            <mxRectangle width="130.00000000000006" height="30" as="alternateBounds" />
          </mxGeometry>
        </mxCell>
        <mxCell id="EmwIvO2XIdEwtpXnSPbd-111" value="" style="edgeStyle=entityRelationEdgeStyle;endArrow=ERzeroToMany;startArrow=ERone;endFill=1;startFill=0;entryX=1.004;entryY=0.759;entryDx=0;entryDy=0;exitX=0;exitY=0.5;exitDx=0;exitDy=0;entryPerimeter=0;" parent="1" source="EmwIvO2XIdEwtpXnSPbd-87" target="EmwIvO2XIdEwtpXnSPbd-74" edge="1">
          <mxGeometry width="100" height="100" relative="1" as="geometry">
            <mxPoint x="1060" y="540" as="sourcePoint" />
            <mxPoint x="1170" y="540" as="targetPoint" />
          </mxGeometry>
        </mxCell>
        <mxCell id="EmwIvO2XIdEwtpXnSPbd-112" value="Suppliers" style="shape=table;startSize=30;container=1;collapsible=1;childLayout=tableLayout;fixedRows=1;rowLines=0;fontStyle=1;align=center;resizeLast=1;swimlaneLine=1;strokeColor=default;" parent="1" vertex="1">
          <mxGeometry x="1300" y="300" width="250" height="190" as="geometry">
            <mxRectangle x="30" y="150" width="100" height="30" as="alternateBounds" />
          </mxGeometry>
        </mxCell>
        <mxCell id="EmwIvO2XIdEwtpXnSPbd-113" value="" style="shape=partialRectangle;collapsible=0;dropTarget=0;pointerEvents=0;fillColor=none;points=[[0,0.5],[1,0.5]];portConstraint=eastwest;top=0;left=0;right=0;bottom=1;" parent="EmwIvO2XIdEwtpXnSPbd-112" vertex="1">
          <mxGeometry y="30" width="250" height="30" as="geometry" />
        </mxCell>
        <mxCell id="EmwIvO2XIdEwtpXnSPbd-114" value="id" style="shape=partialRectangle;overflow=hidden;connectable=0;fillColor=none;top=0;left=0;bottom=0;right=0;fontStyle=1;strokeColor=default;" parent="EmwIvO2XIdEwtpXnSPbd-113" vertex="1">
          <mxGeometry width="119.99999999999994" height="30" as="geometry">
            <mxRectangle width="119.99999999999994" height="30" as="alternateBounds" />
          </mxGeometry>
        </mxCell>
        <mxCell id="EmwIvO2XIdEwtpXnSPbd-115" value="AutoNumber" style="shape=partialRectangle;overflow=hidden;connectable=0;fillColor=none;top=0;left=0;bottom=0;right=0;align=left;spacingLeft=6;fontStyle=1;strokeColor=default;" parent="EmwIvO2XIdEwtpXnSPbd-113" vertex="1">
          <mxGeometry x="119.99999999999994" width="130.00000000000006" height="30" as="geometry">
            <mxRectangle width="130.00000000000006" height="30" as="alternateBounds" />
          </mxGeometry>
        </mxCell>
        <mxCell id="EmwIvO2XIdEwtpXnSPbd-116" value="" style="shape=partialRectangle;collapsible=0;dropTarget=0;pointerEvents=0;fillColor=none;points=[[0,0.5],[1,0.5]];portConstraint=eastwest;top=0;left=0;right=0;bottom=0;" parent="EmwIvO2XIdEwtpXnSPbd-112" vertex="1">
          <mxGeometry y="60" width="250" height="30" as="geometry" />
        </mxCell>
        <mxCell id="EmwIvO2XIdEwtpXnSPbd-117" value="supplier" style="shape=partialRectangle;overflow=hidden;connectable=0;fillColor=none;top=0;left=0;bottom=0;right=0;" parent="EmwIvO2XIdEwtpXnSPbd-116" vertex="1">
          <mxGeometry width="119.99999999999994" height="30" as="geometry">
            <mxRectangle width="119.99999999999994" height="30" as="alternateBounds" />
          </mxGeometry>
        </mxCell>
        <mxCell id="EmwIvO2XIdEwtpXnSPbd-118" value="Short Text" style="shape=partialRectangle;overflow=hidden;connectable=0;fillColor=none;top=0;left=0;bottom=0;right=0;align=left;spacingLeft=6;" parent="EmwIvO2XIdEwtpXnSPbd-116" vertex="1">
          <mxGeometry x="119.99999999999994" width="130.00000000000006" height="30" as="geometry">
            <mxRectangle width="130.00000000000006" height="30" as="alternateBounds" />
          </mxGeometry>
        </mxCell>
        <mxCell id="EmwIvO2XIdEwtpXnSPbd-122" style="shape=partialRectangle;collapsible=0;dropTarget=0;pointerEvents=0;fillColor=none;points=[[0,0.5],[1,0.5]];portConstraint=eastwest;top=0;left=0;right=0;bottom=0;" parent="EmwIvO2XIdEwtpXnSPbd-112" vertex="1">
          <mxGeometry y="90" width="250" height="30" as="geometry" />
        </mxCell>
        <mxCell id="EmwIvO2XIdEwtpXnSPbd-123" value="address" style="shape=partialRectangle;overflow=hidden;connectable=0;fillColor=none;top=0;left=0;bottom=0;right=0;" parent="EmwIvO2XIdEwtpXnSPbd-122" vertex="1">
          <mxGeometry width="119.99999999999994" height="30" as="geometry">
            <mxRectangle width="119.99999999999994" height="30" as="alternateBounds" />
          </mxGeometry>
        </mxCell>
        <mxCell id="EmwIvO2XIdEwtpXnSPbd-124" value="Short Text" style="shape=partialRectangle;overflow=hidden;connectable=0;fillColor=none;top=0;left=0;bottom=0;right=0;align=left;spacingLeft=6;" parent="EmwIvO2XIdEwtpXnSPbd-122" vertex="1">
          <mxGeometry x="119.99999999999994" width="130.00000000000006" height="30" as="geometry">
            <mxRectangle width="130.00000000000006" height="30" as="alternateBounds" />
          </mxGeometry>
        </mxCell>
        <mxCell id="EmwIvO2XIdEwtpXnSPbd-128" style="shape=partialRectangle;collapsible=0;dropTarget=0;pointerEvents=0;fillColor=none;points=[[0,0.5],[1,0.5]];portConstraint=eastwest;top=0;left=0;right=0;bottom=0;" parent="EmwIvO2XIdEwtpXnSPbd-112" vertex="1">
          <mxGeometry y="120" width="250" height="30" as="geometry" />
        </mxCell>
        <mxCell id="EmwIvO2XIdEwtpXnSPbd-129" value="email" style="shape=partialRectangle;overflow=hidden;connectable=0;fillColor=none;top=0;left=0;bottom=0;right=0;" parent="EmwIvO2XIdEwtpXnSPbd-128" vertex="1">
          <mxGeometry width="119.99999999999994" height="30" as="geometry">
            <mxRectangle width="119.99999999999994" height="30" as="alternateBounds" />
          </mxGeometry>
        </mxCell>
        <mxCell id="EmwIvO2XIdEwtpXnSPbd-130" value="Short Text" style="shape=partialRectangle;overflow=hidden;connectable=0;fillColor=none;top=0;left=0;bottom=0;right=0;align=left;spacingLeft=6;" parent="EmwIvO2XIdEwtpXnSPbd-128" vertex="1">
          <mxGeometry x="119.99999999999994" width="130.00000000000006" height="30" as="geometry">
            <mxRectangle width="130.00000000000006" height="30" as="alternateBounds" />
          </mxGeometry>
        </mxCell>
        <mxCell id="EmwIvO2XIdEwtpXnSPbd-125" style="shape=partialRectangle;collapsible=0;dropTarget=0;pointerEvents=0;fillColor=none;points=[[0,0.5],[1,0.5]];portConstraint=eastwest;top=0;left=0;right=0;bottom=0;" parent="EmwIvO2XIdEwtpXnSPbd-112" vertex="1">
          <mxGeometry y="150" width="250" height="30" as="geometry" />
        </mxCell>
        <mxCell id="EmwIvO2XIdEwtpXnSPbd-126" value="phone_number" style="shape=partialRectangle;overflow=hidden;connectable=0;fillColor=none;top=0;left=0;bottom=0;right=0;" parent="EmwIvO2XIdEwtpXnSPbd-125" vertex="1">
          <mxGeometry width="119.99999999999994" height="30" as="geometry">
            <mxRectangle width="119.99999999999994" height="30" as="alternateBounds" />
          </mxGeometry>
        </mxCell>
        <mxCell id="EmwIvO2XIdEwtpXnSPbd-127" value="Number" style="shape=partialRectangle;overflow=hidden;connectable=0;fillColor=none;top=0;left=0;bottom=0;right=0;align=left;spacingLeft=6;" parent="EmwIvO2XIdEwtpXnSPbd-125" vertex="1">
          <mxGeometry x="119.99999999999994" width="130.00000000000006" height="30" as="geometry">
            <mxRectangle width="130.00000000000006" height="30" as="alternateBounds" />
          </mxGeometry>
        </mxCell>
        <mxCell id="EmwIvO2XIdEwtpXnSPbd-143" value="" style="edgeStyle=entityRelationEdgeStyle;fontSize=12;html=1;endArrow=ERone;endFill=1;entryX=0;entryY=0.5;entryDx=0;entryDy=0;exitX=1;exitY=0.5;exitDx=0;exitDy=0;rounded=1;" parent="1" source="EmwIvO2XIdEwtpXnSPbd-102" target="EmwIvO2XIdEwtpXnSPbd-113" edge="1">
          <mxGeometry width="100" height="100" relative="1" as="geometry">
            <mxPoint x="1420" y="500" as="sourcePoint" />
            <mxPoint x="1520" y="400" as="targetPoint" />
          </mxGeometry>
        </mxCell>
      </root>
    </mxGraphModel>
  </diagram>
</mxfile>
